<svg viewBox="0 0 80 80" fill="none" xmlns="http://www.w3.org/2000/svg">
    <path d="M80 54.6908H0V79.6908H80V54.6908Z" fill="#282629" />
    <path
      d="M19.3002 65.287H17.4302L17.6902 63.747H19.3002V61.1871C19.2502 60.3372 19.5336 59.5012 20.0902 58.857C20.3837 58.5613 20.7375 58.3323 21.1275 58.1856C21.5175 58.039 21.9345 57.978 22.3502 58.007C22.9364 57.9987 23.5192 58.097 24.0702 58.297L23.7602 59.967C23.4078 59.8385 23.0353 59.7742 22.6602 59.777C21.7402 59.777 21.2902 60.287 21.2902 61.317V63.737H24.2002V65.277H21.2902V74.547H19.2902L19.3002 65.287Z"
      fill="#4BB483"
    />
    <path
      d="M25.8601 64.22H27.4901L27.7301 66.01C28.1789 65.4184 28.719 64.9019 29.3301 64.48C29.8072 64.1718 30.3621 64.0053 30.9301 64C31.1019 63.9991 31.2732 64.0192 31.4401 64.06L31.2401 66.25C31.024 66.1988 30.8022 66.1753 30.5801 66.18C30.0412 66.1765 29.5093 66.3034 29.0301 66.55C28.6094 66.7372 28.2442 67.03 27.9701 67.4V75.03H25.8601V64.22Z"
      fill="#4BB483"
    />
    <path
      d="M34.3902 74.4694C33.5962 73.9919 32.9545 73.2982 32.5402 72.4694C32.1185 71.5732 31.8999 70.5949 31.8999 69.6044C31.8999 68.614 32.1185 67.6357 32.5402 66.7394C32.9545 65.9107 33.5962 65.217 34.3902 64.7394C35.2672 64.2544 36.253 64 37.2552 64C38.2574 64 39.2432 64.2544 40.1202 64.7394C40.9245 65.2104 41.5743 65.9054 41.9902 66.7394C42.4119 67.6357 42.6305 68.614 42.6305 69.6044C42.6305 70.5949 42.4119 71.5732 41.9902 72.4694C41.5743 73.3035 40.9245 73.9984 40.1202 74.4694C39.2432 74.9544 38.2574 75.2089 37.2552 75.2089C36.253 75.2089 35.2672 74.9544 34.3902 74.4694ZM39.7202 72.4694C40.3474 71.6565 40.6599 70.6445 40.6002 69.6194C40.662 68.5973 40.3492 67.5876 39.7202 66.7794C39.0676 66.1272 38.1828 65.7609 37.2602 65.7609C36.3376 65.7609 35.4528 66.1272 34.8002 66.7794C34.1748 67.5889 33.8655 68.5985 33.9302 69.6194C33.8676 70.6432 34.1766 71.6551 34.8002 72.4694C35.4528 73.1216 36.3376 73.488 37.2602 73.488C38.1828 73.488 39.0676 73.1216 39.7202 72.4694Z"
      fill="#4BB483"
    />
    <path
      d="M54.4299 69.0801V75.0801H52.4299V69.0801C52.5098 68.1903 52.2802 67.3002 51.7799 66.5601C51.5013 66.2732 51.1613 66.0531 50.7855 65.9163C50.4097 65.7795 50.0078 65.7295 49.6099 65.7701C49.0009 65.7616 48.3972 65.8844 47.8399 66.1301C47.3452 66.3254 46.9275 66.6764 46.6499 67.1301V74.9901H44.6499V64.2201H46.1899L46.4099 65.3701C46.9072 64.8987 47.496 64.5344 48.1399 64.3001C48.7356 64.0978 49.3609 63.9964 49.9899 64.0001C52.9499 64.0068 54.4299 65.7001 54.4299 69.0801Z"
      fill="#4BB483"
    />
    <path
      d="M58.4301 74.16C57.9707 73.6631 57.7232 73.0065 57.7401 72.33V65.42H55.8901L56.0701 63.87H57.7501V61.2L59.7501 61V63.87H62.5901V65.41H59.7501V71.11C59.7255 71.6268 59.7692 72.1446 59.8801 72.65C59.9171 72.7816 59.9885 72.901 60.0869 72.9959C60.1853 73.0908 60.3072 73.1578 60.4401 73.19C60.9604 73.2908 61.4906 73.3311 62.0201 73.31H62.5301L62.3701 74.9H60.5801C60.1899 74.9345 59.7968 74.8864 59.4263 74.7589C59.0559 74.6314 58.7164 74.4274 58.4301 74.16Z"
      fill="#4BB483"
    />
    <path
      d="M39.4601 45.6508C39.4134 42.3431 40.5965 39.1359 42.78 36.6508C44.0476 35.2124 45.7123 34.181 47.5646 33.6864C49.4169 33.1917 51.3741 33.2559 53.19 33.8708C53.6873 34.0343 54.1562 34.2738 54.5801 34.5808C54.8401 34.7708 54.92 34.7208 54.97 34.4208L55.75 29.6908C55.94 28.5608 56.1401 27.4308 56.3201 26.3008C56.3201 26.0708 56.4401 25.9908 56.6701 26.0008C57.6201 26.0008 58.5701 26.0508 59.5101 26.0508C59.8301 26.0508 59.8601 26.1808 59.8201 26.4408L58.68 33.0908C58.2 36.0108 57.68 38.9208 57.25 41.8408C57.0615 43.5585 56.6341 45.2414 55.9801 46.8408C55.3715 48.4229 54.3684 49.823 53.0662 50.9082C51.764 51.9934 50.2059 52.7275 48.5401 53.0408C46.7526 53.427 44.89 53.2596 43.2001 52.5608C42.2151 52.1151 41.3642 51.4188 40.7325 50.5414C40.1008 49.664 39.7103 48.6363 39.6001 47.5608C39.5054 46.9286 39.4586 46.2901 39.4601 45.6508ZM53.3801 41.0008C53.4016 40.4754 53.368 39.9492 53.28 39.4308C53.2185 38.7774 52.957 38.1589 52.5311 37.6596C52.1051 37.1603 51.5356 36.8046 50.9 36.6408C50.1977 36.4584 49.464 36.4312 48.75 36.5608C48.0011 36.6999 47.2914 36.9999 46.6698 37.4402C46.0482 37.8804 45.5297 38.4505 45.15 39.1108C43.6789 41.4314 43.0833 44.2005 43.47 46.9208C43.479 47.6613 43.7454 48.3756 44.2234 48.9413C44.7015 49.5069 45.3614 49.8885 46.09 50.0208C46.8146 50.1809 47.5655 50.1809 48.2901 50.0208C49.026 49.8334 49.7135 49.4912 50.3067 49.017C50.9 48.5428 51.3852 47.9475 51.7301 47.2708C52.8402 45.3698 53.4107 43.202 53.3801 41.0008Z"
      fill="#EF562D"
    />
    <path
      d="M77.7401 40.8208C77.6799 43.5126 76.9366 46.145 75.5801 48.4708C74.533 50.1869 72.993 51.5476 71.161 52.3753C69.3289 53.203 67.29 53.4593 65.3101 53.1108C63.8997 52.9272 62.5963 52.2613 61.6211 51.2259C60.6459 50.1906 60.059 48.8497 59.9601 47.4308C59.6306 45.414 59.7813 43.3479 60.3998 41.4002C61.0184 39.4525 62.0874 37.678 63.5201 36.2208C64.7383 34.9033 66.3127 33.9677 68.0523 33.5274C69.7919 33.0872 71.6218 33.1613 73.3201 33.7408C74.4706 34.0625 75.4961 34.7263 76.2605 35.6443C77.0249 36.5624 77.4921 37.6911 77.6001 38.8808C77.6928 39.5233 77.7396 40.1716 77.7401 40.8208ZM63.8501 45.5208C63.8501 45.7708 63.8501 46.1508 63.9201 46.5208C63.9118 47.0354 64.0186 47.5452 64.2329 48.0131C64.4472 48.481 64.7634 48.895 65.1585 49.2249C65.5535 49.5547 66.0173 49.7919 66.5159 49.9193C67.0145 50.0466 67.5353 50.0608 68.0401 49.9608C68.7233 49.904 69.3851 49.6949 69.977 49.3488C70.5688 49.0027 71.0756 48.5284 71.4601 47.9608C73.2635 45.5008 74.0186 42.4264 73.5601 39.4108C73.537 38.8377 73.3427 38.2846 73.0022 37.8229C72.6618 37.3613 72.1908 37.0122 71.6501 36.8208C70.9366 36.534 70.1617 36.434 69.3988 36.5303C68.6358 36.6265 67.91 36.9158 67.2901 37.3708C66.1879 38.1571 65.3397 39.2485 64.8501 40.5108C64.2166 42.1066 63.8778 43.8041 63.8501 45.5208Z"
      fill="#EF562D"
    />
    <path
      d="M15.2701 48.3109C15.1401 49.5909 15.0101 50.8008 14.8901 52.0108C14.8901 52.1508 14.8401 52.2508 14.6901 52.3008C12.3771 53.1848 9.86574 53.4166 7.43004 52.9709C6.34362 52.7841 5.33431 52.2874 4.52355 51.5405C3.71279 50.7936 3.13514 49.8283 2.86007 48.7608C2.20658 46.8344 2.04722 44.7747 2.39666 42.7707C2.7461 40.7667 3.59314 38.8824 4.86007 37.2908C6.16699 35.6488 7.93887 34.4391 9.94417 33.8201C11.9495 33.201 14.0949 33.2012 16.1001 33.8208C16.9399 33.9992 17.7052 34.43 18.2932 35.0556C18.8813 35.6812 19.264 36.4716 19.3901 37.3208C19.5843 38.3973 19.4618 39.5071 19.0376 40.5154C18.6133 41.5236 17.9055 42.3871 17.0001 43.0009C15.2993 44.2019 13.2814 44.8734 11.2001 44.9309C9.58682 45.0799 7.96136 44.8399 6.46007 44.2308C6.26007 44.1408 6.18004 44.1808 6.15004 44.3908C6.0328 45.2648 6.07687 46.1528 6.28005 47.0108C6.4803 47.805 6.91949 48.5185 7.53826 49.055C8.15703 49.5915 8.92559 49.9251 9.74007 50.0108C11.4109 50.2513 13.1104 49.8434 14.4901 48.8709L15.2701 48.3109ZM10.2701 41.7908C11.1143 41.7823 11.9542 41.6681 12.7701 41.4508C13.7502 41.2722 14.6415 40.7684 15.3001 40.0208C15.5316 39.7679 15.6941 39.4597 15.7722 39.1258C15.8502 38.7919 15.8411 38.4436 15.7457 38.1142C15.6503 37.7849 15.4718 37.4856 15.2274 37.2451C14.983 37.0046 14.6809 36.8309 14.3501 36.7409C13.3146 36.4855 12.2292 36.5166 11.2101 36.8308C9.01007 37.4508 7.81005 39.0909 7.00005 41.0909C6.90005 41.3309 7.06006 41.3408 7.20006 41.3908C8.19789 41.7078 9.24443 41.8432 10.2901 41.7908H10.2701Z"
      fill="#EF562D"
    />
    <path
      d="M31.79 50.9808C29.79 52.9308 27.27 53.3308 24.65 53.1708C22.26 53.0208 20.65 51.1708 20.54 48.6208C20.5426 47.248 20.6968 45.8797 21 44.5408C21.61 41.0608 22.23 37.6008 22.83 34.1208C22.89 33.8008 23 33.7108 23.32 33.7108C24.32 33.7108 25.39 33.7108 26.42 33.7108C26.71 33.7108 26.77 33.7808 26.72 34.0708C25.97 38.1408 25.25 42.2008 24.51 46.2708C24.4552 46.6482 24.4351 47.0298 24.45 47.4108C24.4129 47.7601 24.4539 48.1132 24.5699 48.4447C24.686 48.7761 24.8743 49.0777 25.1212 49.3275C25.3682 49.5773 25.6675 49.769 25.9976 49.8889C26.3277 50.0088 26.6804 50.0539 27.03 50.0208C28.3781 50.025 29.6865 49.565 30.7354 48.7183C31.7844 47.8715 32.5099 46.6894 32.79 45.3708C33.4567 41.6641 34.1234 37.9508 34.79 34.2308C34.86 33.8508 34.96 33.6808 35.4 33.7008C36.4 33.7008 37.35 33.7008 38.33 33.7008C38.66 33.7008 38.79 33.7008 38.72 34.1308C37.63 39.9908 36.5701 45.8508 35.4901 51.7108L35.4 52.2108C35.28 52.8608 35.28 52.8608 34.61 52.8608H31.7701C31.4901 52.8608 31.3901 52.8108 31.4601 52.5008C31.6201 52.0108 31.7 51.4908 31.79 50.9808Z"
      fill="#EF562D"
    />
    <path d="M65.28 72H68.53V75.2H65.28V72Z" fill="#EF562D" />
  </svg>